<svg width="48" height="49" viewBox="0 0 48 49" fill="none" xmlns="http://www.w3.org/2000/svg">
<g id="github 1" clip-path="url(#clip0_11_34)">
<g id="Group">
<path id="Vector" fill-rule="evenodd" clip-rule="evenodd" d="M23.8405 1.35522C10.6746 1.35522 0 12.0135 0 25.1637C0 35.6831 6.83031 44.6073 16.3029 47.756C17.495 47.9762 17.932 47.2401 17.932 46.6112C17.932 46.0437 17.9102 44.1688 17.9003 42.1788C11.2686 43.6192 9.86799 39.3694 9.86799 39.3694C8.78324 36.6176 7.22169 35.8854 7.22169 35.8854C5.05816 34.4073 7.3846 34.4391 7.3846 34.4391C9.77859 34.6077 11.0382 36.8933 11.0382 36.8933C13.1639 40.5321 16.6149 39.4805 17.9757 38.8714C18.1903 37.3318 18.8082 36.2823 19.4896 35.687C14.195 35.0859 8.62828 33.0443 8.62828 23.9217C8.62828 21.3226 9.56005 19.1977 11.0858 17.5311C10.8375 16.9299 10.021 14.5094 11.3163 11.2298C11.3163 11.2298 13.3189 10.5909 17.8744 13.6702C19.7757 13.1424 21.8141 12.8785 23.8405 12.8686C25.867 12.8785 27.9073 13.1424 29.8126 13.6702C34.3621 10.5889 36.3627 11.2298 36.3627 11.2298C37.6601 14.5094 36.8435 16.9299 36.5972 17.5311C38.125 19.1977 39.0508 21.3226 39.0508 23.9217C39.0508 33.0661 33.4741 35.0799 28.1656 35.6692C29.0199 36.4072 29.7828 37.8576 29.7828 40.0777C29.7828 43.2641 29.755 45.8275 29.755 46.6112C29.755 47.2441 30.1841 47.9881 31.392 47.754C40.8607 44.6013 47.683 35.6811 47.683 25.1657C47.681 12.0155 37.0064 1.35522 23.8405 1.35522Z" fill="#79F89C"/>
<path id="Vector_2" d="M9.02961 35.5402C8.97795 35.6593 8.7912 35.695 8.62034 35.6136C8.4475 35.5363 8.35015 35.3736 8.40578 35.2565C8.45743 35.1355 8.64418 35.1018 8.81703 35.1831C8.98987 35.2585 9.08921 35.4212 9.02961 35.5402Z" fill="#79F89C"/>
<path id="Vector_3" d="M9.99515 36.6156C9.88191 36.7207 9.6594 36.6711 9.50841 36.5065C9.35146 36.3398 9.32364 36.1176 9.43887 36.0124C9.55609 35.9073 9.77065 35.9569 9.9276 36.1235C10.0846 36.2882 10.1144 36.5085 9.99515 36.6156Z" fill="#79F89C"/>
<path id="Vector_4" d="M10.9348 37.9865C10.7878 38.0877 10.5494 37.9924 10.4024 37.7821C10.2554 37.5698 10.2554 37.3159 10.4064 37.2147C10.5534 37.1135 10.7898 37.2048 10.9388 37.4151C11.0838 37.6293 11.0838 37.8833 10.9348 37.9865Z" fill="#79F89C"/>
<path id="Vector_5" d="M12.2222 39.312C12.0911 39.4568 11.813 39.4171 11.6103 39.2207C11.4017 39.0282 11.3441 38.7564 11.4752 38.6116C11.6083 38.4668 11.8885 38.5084 12.0931 38.7029C12.2997 38.8953 12.3613 39.1691 12.2222 39.312Z" fill="#79F89C"/>
<path id="Vector_6" d="M14.0003 40.0797C13.9427 40.2662 13.6745 40.3515 13.4043 40.2721C13.1341 40.1908 12.9573 39.9725 13.013 39.7841C13.0686 39.5956 13.3388 39.5083 13.611 39.5936C13.8792 39.6729 14.056 39.8912 14.0003 40.0797Z" fill="#79F89C"/>
<path id="Vector_7" d="M15.9513 40.2226C15.9573 40.419 15.7288 40.5817 15.4447 40.5857C15.1606 40.5916 14.9281 40.4329 14.9261 40.2405C14.9261 40.0421 15.1506 39.8814 15.4347 39.8754C15.7188 39.8695 15.9513 40.0282 15.9513 40.2226Z" fill="#79F89C"/>
<path id="Vector_8" d="M17.7671 39.915C17.8009 40.1055 17.6042 40.3039 17.3221 40.3555C17.046 40.407 16.7897 40.288 16.7539 40.0975C16.7202 39.9011 16.9208 39.7047 17.197 39.6531C17.4771 39.6035 17.7314 39.7186 17.7671 39.915Z" fill="#79F89C"/>
</g>
</g>
<defs>
<clipPath id="clip0_11_34">
<rect width="47.681" height="47.6169" fill="white" transform="translate(0 0.768066)"/>
</clipPath>
</defs>
</svg>
