<svg width="43" height="49" viewBox="0 0 43 49" fill="none" xmlns="http://www.w3.org/2000/svg">
<g id="instagram 1" clip-path="url(#clip0_11_44)">
<g id="Group">
<path id="Vector" d="M21.5 5.05756C27.1272 5.05756 27.7946 5.08137 30.0163 5.19644C32.3135 5.31548 34.6792 5.90673 36.353 7.79752C38.0426 9.70616 38.5501 12.3529 38.6555 14.9559C38.7574 17.4657 38.7784 18.2197 38.7784 24.5765C38.7784 30.9334 38.7574 31.6873 38.6555 34.1971C38.5519 36.7784 38.0162 39.4767 36.353 41.3556C34.6634 43.2642 32.3223 43.8376 30.0163 43.9566C27.7946 44.0717 27.1272 44.0955 21.5 44.0955C15.8728 44.0955 15.2054 44.0717 12.9837 43.9566C10.7164 43.8396 8.29618 43.2206 6.64702 41.3556C4.96625 39.4568 4.4499 36.7843 4.34452 34.1971C4.24265 31.6873 4.22158 30.9334 4.22158 24.5765C4.22158 18.2197 4.24265 17.4657 4.34452 14.9559C4.44814 12.3846 4.98908 9.67045 6.64702 7.79752C8.33307 5.89284 10.6847 5.31548 12.9837 5.19644C15.2054 5.08137 15.8728 5.05756 21.5 5.05756ZM21.5 0.768066C15.7762 0.768066 15.0579 0.795843 12.8099 0.910917C9.55193 1.07956 6.31684 2.10332 3.96165 4.76392C1.59767 7.43444 0.700207 11.0811 0.550922 14.7595C0.449057 17.2991 0.424469 18.1106 0.424469 24.5765C0.424469 31.0425 0.449057 31.854 0.550922 34.3936C0.700207 38.07 1.60997 41.7345 3.96165 44.3892C6.32386 47.0577 9.5572 48.0735 12.8099 48.2422C15.0579 48.3572 15.7762 48.385 21.5 48.385C27.2238 48.385 27.9421 48.3572 30.1902 48.2422C33.4463 48.0735 36.6849 47.0478 39.0384 44.3892C41.4041 41.7167 42.2998 38.072 42.4491 34.3936C42.551 31.854 42.5756 31.0425 42.5756 24.5765C42.5756 18.1106 42.551 17.2991 42.4491 14.7595C42.2998 11.0791 41.3918 7.42253 39.0384 4.76392C36.6797 2.09936 33.4375 1.07758 30.1902 0.910917C27.9421 0.795843 27.2238 0.768066 21.5 0.768066Z" fill="#79F89C"/>
<path id="Vector_2" d="M21.5 12.3508C15.5233 12.3508 10.6777 17.8248 10.6777 24.5765C10.6777 31.3282 15.5233 36.8021 21.5 36.8021C27.4767 36.8021 32.3223 31.3282 32.3223 24.5765C32.3223 17.8248 27.4767 12.3508 21.5 12.3508ZM21.5 32.5126C17.6203 32.5126 14.4748 28.9592 14.4748 24.5765C14.4748 20.1937 17.6203 16.6403 21.5 16.6403C25.3797 16.6403 28.5252 20.1937 28.5252 24.5765C28.5252 28.9592 25.3797 32.5126 21.5 32.5126Z" fill="#79F89C"/>
<path id="Vector_3" d="M32.7508 14.7238C34.1476 14.7238 35.2799 13.4447 35.2799 11.8668C35.2799 10.2889 34.1476 9.00977 32.7508 9.00977C31.3541 9.00977 30.2218 10.2889 30.2218 11.8668C30.2218 13.4447 31.3541 14.7238 32.7508 14.7238Z" fill="#79F89C"/>
</g>
</g>
<defs>
<clipPath id="clip0_11_44">
<rect width="42.1511" height="47.6169" fill="white" transform="translate(0.424469 0.768066)"/>
</clipPath>
</defs>
</svg>
