<svg width="39" height="39" viewBox="0 0 39 39" fill="none" xmlns="http://www.w3.org/2000/svg">
<g id="lingua 1">
<path id="Vector" d="M30.875 7H8.125C3.63838 7 0 10.6367 0 15.125V24.875C0 29.3616 3.63838 33 8.125 33H30.875C35.3551 33 39 29.3551 39 24.875V15.125C39 10.6449 35.3551 7 30.875 7ZM13.195 26.5C12.6652 26.5 12.2054 26.1344 12.0868 25.6176L11.6561 23.7375H7.7415L7.29625 25.6241C7.17437 26.1376 6.71775 26.5 6.18962 26.5C5.45675 26.5 4.91563 25.8159 5.083 25.1025L7.37912 15.3639C7.70575 13.9566 9.22675 13.0791 10.7201 13.7048C11.4335 14.0038 11.9129 14.6895 12.0884 15.4435L14.3033 25.109C14.4657 25.8207 13.9262 26.5 13.195 26.5ZM35.75 24.875C35.75 27.5627 33.5628 29.75 30.875 29.75H19.5V10.25H30.875C33.5628 10.25 35.75 12.4373 35.75 15.125V24.875ZM33.3125 16.126V16.1601C33.3125 16.7126 32.864 17.1611 32.3115 17.1611H31.798C31.6014 19.233 30.7954 21.599 29.1866 23.4434C30.0674 23.978 31.1236 24.3599 32.4106 24.4818C32.9225 24.5305 33.3125 24.9628 33.3125 25.4779V25.512C33.3125 26.1068 32.799 26.565 32.2075 26.5081C30.3599 26.331 28.8616 25.7135 27.6445 24.8474C26.4209 25.7216 24.9048 26.3342 23.0425 26.5081C22.451 26.5634 21.9391 26.1051 21.9391 25.5104V25.4762C21.9391 24.9546 22.3421 24.5272 22.8621 24.4785C24.1426 24.3566 25.1989 23.9796 26.0747 23.4466C25.5369 22.8308 25.0884 22.1564 24.7211 21.4528C24.375 20.7898 24.8657 19.9967 25.6133 19.9967H25.6295C25.9967 19.9967 26.3396 20.195 26.5086 20.52C26.8092 21.092 27.1846 21.6429 27.6348 22.1482C28.964 20.6532 29.5718 18.7228 29.7521 17.1579H22.9417C22.3892 17.1579 21.9408 16.7094 21.9408 16.1569V16.1228C21.9408 15.5703 22.3892 15.1217 22.9417 15.1217H26.6094V14.4978C26.6094 13.9453 27.0579 13.4968 27.6104 13.4968H27.6445C28.197 13.4968 28.6455 13.9453 28.6455 14.4978V15.1217H32.3131C32.8656 15.1217 33.3141 15.5703 33.3141 16.1228L33.3125 16.126ZM9.85563 15.8774L11.1345 21.4625H8.27938L9.59725 15.8774C9.61188 15.8173 9.66388 15.775 9.72563 15.775C9.78738 15.775 9.84262 15.8173 9.85563 15.8774Z" fill="#44E371"/>
</g>
</svg>
