<svg width="43" height="48" viewBox="0 0 43 48" fill="none" xmlns="http://www.w3.org/2000/svg">
<g id="linkedin 1" clip-path="url(#clip0_11_49)">
<g id="Group">
<path id="Path_2525" d="M41.2472 42.8237H41.6459L40.8819 41.5182C41.3491 41.5182 41.5967 41.1829 41.6002 40.7722C41.6002 40.7563 41.6002 40.7385 41.5985 40.7226C41.5985 40.1631 41.2999 39.8953 40.687 39.8953H39.6964V42.8237H40.0687V41.548H40.5271L41.2472 42.8237ZM40.5008 41.2166H40.0687V40.2266H40.6167C40.8995 40.2266 41.2226 40.2782 41.2226 40.6968C41.2226 41.177 40.8977 41.2166 40.5008 41.2166Z" fill="#79F89C"/>
<path id="Path_2520" d="M31.217 37.8417H25.9359V28.4989C25.9359 26.2708 25.9007 23.4038 23.189 23.4038C20.4387 23.4038 20.0171 25.8303 20.0171 28.3381V37.8417H14.7377V18.6283H19.8081V21.2531H19.8784C20.9129 19.2572 22.8342 18.0648 24.8803 18.1501C30.2335 18.1501 31.2188 22.1281 31.2188 27.3005L31.217 37.8417ZM8.77861 16.0014C7.08554 16.0014 5.71388 14.4519 5.71388 12.5392C5.71388 10.6266 7.08554 9.07709 8.77861 9.07709C10.4717 9.07709 11.8433 10.6266 11.8433 12.5392C11.8433 14.4519 10.4717 16.0014 8.77861 16.0014ZM11.4183 37.8417H6.13187V18.6283H11.4183V37.8417ZM33.8497 3.53766H3.47811C2.04322 3.5198 0.866501 4.81934 0.848938 6.44031V40.8912C0.866501 42.5141 2.04322 43.8137 3.47811 43.7958H33.8497C35.2881 43.8156 36.4701 42.5161 36.4894 40.8912V6.43832C36.4684 4.81339 35.2864 3.51385 33.8497 3.53567" fill="#79F89C"/>
<path id="Path_2526" d="M40.5465 38.5916C39.2047 38.6054 38.1263 39.8474 38.1404 41.3633C38.1527 42.8791 39.2521 44.0973 40.5939 44.0814C41.9357 44.0675 43.0141 42.8255 43 41.3097C42.9877 39.8137 41.9164 38.6054 40.5939 38.5916H40.5465ZM40.6027 43.7659C39.426 43.7878 38.4003 42.7303 38.381 41.401C38.3617 40.0716 39.2995 38.9765 40.4762 38.9546C41.653 38.9328 42.6224 39.9923 42.6417 41.3216C42.6417 41.3355 42.6417 41.3474 42.6417 41.3613C42.6663 42.6608 41.7531 43.7382 40.6027 43.7659H40.5482H40.6027Z" fill="#79F89C"/>
</g>
</g>
<defs>
<clipPath id="clip0_11_49">
<rect width="42.1511" height="47.6169" fill="white" transform="translate(0.848938)"/>
</clipPath>
</defs>
</svg>
