<svg width="36" height="36" viewBox="0 0 36 36" fill="none" xmlns="http://www.w3.org/2000/svg">
<g id="livro-aberto-capa 1" clip-path="url(#clip0_11_16)">
<rect width="36" height="36" fill="#44E371"/>
<path id="Vector" d="M36 5.24976V26.1913C36 29.2108 33.969 31.8853 31.059 32.6938L20.379 35.6653C18.822 36.0973 17.1765 36.0988 15.6195 35.6653L4.93949 32.6938C2.03099 31.8838 -1.24909e-05 29.2108 -1.24909e-05 26.1913V6.74976C-0.0150125 5.77626 1.51499 5.77626 1.49999 6.74976V26.1913C1.49999 28.5388 3.07949 30.6193 5.34299 31.2493L16.0245 34.2208C17.3175 34.5808 18.684 34.5808 19.9785 34.2208L30.6585 31.2478C32.922 30.6193 34.5015 28.5388 34.5015 26.1898V5.24976C34.4865 4.27626 36.015 4.27626 36 5.24976ZM4.49999 23.8663V5.24976C4.49999 3.58776 5.26049 2.05926 6.58799 1.05876C7.91549 0.0582564 9.59399 -0.255244 11.1915 0.200756L16.029 1.58376C16.836 1.81326 17.5185 2.30376 17.9985 2.94576C18.4785 2.30376 19.1625 1.81326 19.968 1.58376L24.8055 0.200756C26.4045 -0.255244 28.083 0.0567564 29.409 1.05876C30.7365 2.05926 31.497 3.58776 31.497 5.24976V23.8663C31.497 26.1973 29.931 28.2733 27.69 28.9153L19.2765 31.3198C18.4395 31.5583 17.5545 31.5583 16.7175 31.3198L8.30549 28.9153C6.06299 28.2748 4.49699 26.1973 4.49699 23.8663H4.49999ZM18.75 5.18976V29.9068C18.789 29.8978 27.2805 27.4723 27.2805 27.4723C28.881 27.0148 30 25.5328 30 23.8663V5.24976C30 4.06176 29.457 2.97126 28.5075 2.25576C27.5565 1.53726 26.3475 1.31826 25.2195 1.64376L20.382 3.02676C19.4205 3.30126 18.75 4.19076 18.75 5.18976ZM5.99999 23.8663C5.99999 25.5313 7.11899 27.0148 8.71949 27.4723C8.71949 27.4723 17.211 29.8978 17.25 29.9068V5.18976C17.25 4.19076 16.5795 3.30126 15.618 3.02676L10.7805 1.64376C8.48699 0.910256 5.92649 2.83326 5.99999 5.24976V23.8663Z" fill="black"/>
</g>
<defs>
<clipPath id="clip0_11_16">
<rect width="36" height="36" fill="white"/>
</clipPath>
</defs>
</svg>
